# xmcd CD database file
#
# Track frame offsets:
#	150
#	14822
#	30483
#	47913
#	62865
#	76682
#	90943
#	105847
#	119937
#	134522
#	148460
#	163782
#	178698
#	193636
#	206594
#	221271
#
# Disc length: 3136 seconds
#
# Revision: 3
# Processed by: cddbd v1.5.2PL0 Copyright (c) Steve Scherf et al.
# Submitted via: CDex 1.51
#
DISCID=e80c3e10
DTITLE=Various Artist - American Songbook (2 of 2)
DYEAR=2004
DGENRE=Jazz
TTITLE0=Tommy Dorsey - On The Sunny Side Of The Street
TTITLE1=Billie Holiday - I Can't Give You Anything But Love
TTITLE2=Paul Robeson - Ol' Man River
TTITLE3=Leo Reisman - Stormy Weather
TTITLE4=Vaughn Monroe - Blue Moon
TTITLE5=Doris Day - Tea For Two
TTITLE6=Fred Astaire - Cheek To Cheek
TTITLE7=Fats Waller - Honeysuckle Rose
TTITLE8=Mel Tormé - Where Or When
TTITLE9=Duke Ellington - Mood Indigo
TTITLE10=Louis Armstrong - Georgia On My Mind
TTITLE11=Bob Willis - San Antonio Rose
TTITLE12=Eddy Duchin - I Only Have Eyes For You
TTITLE13=Francis Graig - Near You
TTITLE14=Tommy Dorsey and Frank Sinatra - Fools Rush In
TTITLE15=Sammy Kaye - The Old Lamplighter
EXTD=YEAR: 2004
EXTT0=
EXTT1=
EXTT2=
EXTT3=
EXTT4=
EXTT5=
EXTT6=
EXTT7=
EXTT8=
EXTT9=
EXTT10=
EXTT11=
EXTT12=
EXTT13=
EXTT14=
EXTT15=
PLAYORDER=
